<?xml version="1.0" encoding="iso-8859-1"?>
<!-- Generator: Adobe Illustrator 18.1.1, SVG Export Plug-In . SVG Version: 6.00 Build 0)  -->
<svg version="1.1" id="Capa_1" xmlns="http://www.w3.org/2000/svg" xmlns:xlink="http://www.w3.org/1999/xlink" x="0px" y="0px"
	 viewBox="0 0 200.827 200.827" style="enable-background:new 0 0 200.827 200.827;" xml:space="preserve">
<g>
	<g>
		<path style="fill:#010002;" d="M172.143,41.706H29.508L19.39,120.112h165.4L172.143,41.706z M31.147,65.23l2.441-18.893h134.604
			l3.106,19.297H31.1L31.147,65.23z M27.75,91.556l2.749-21.276h141.547l3.504,21.681H27.707L27.75,91.556z M24.716,115.065
			l2.387-18.46h149.199l3.042,18.868H24.669L24.716,115.065z"/>
		<polygon style="fill:#010002;" points="61.467,63.337 63.067,48.445 58.439,48.388 56.843,63.297 		"/>
		<polygon style="fill:#010002;" points="58.947,88.772 60.547,73.88 55.923,73.819 54.323,88.736 		"/>
		<polygon style="fill:#010002;" points="56.041,113.527 57.641,98.635 53.014,98.588 51.417,113.498 		"/>
		<polygon style="fill:#010002;" points="134.411,48.778 136.007,63.67 140.635,63.641 139.035,48.724 		"/>
		<polygon style="fill:#010002;" points="136.923,74.209 138.527,89.101 143.15,89.069 141.547,74.159 		"/>
		<polygon style="fill:#010002;" points="139.836,98.979 141.433,113.874 146.06,113.834 144.46,98.921 		"/>
		<rect x="97.202" y="48.728" style="fill:#010002;" width="4.642" height="14.598"/>
		<rect x="97.202" y="73.3" style="fill:#010002;" width="4.642" height="14.605"/>
		<rect x="97.202" y="99.623" style="fill:#010002;" width="4.642" height="14.612"/>
		<path style="fill:#010002;" d="M97.667,131.109h103.16l-14.96-101.013H14.963L0,131.109h93.025v34.98L56.51,166.1v4.549
			l79.529,0.082v-4.642H97.667V131.109z M5.379,126.471l0.061-0.408l13.532-91.336h162.888l13.6,91.744H5.379z"/>
	</g>
</g>
<g>
</g>
<g>
</g>
<g>
</g>
<g>
</g>
<g>
</g>
<g>
</g>
<g>
</g>
<g>
</g>
<g>
</g>
<g>
</g>
<g>
</g>
<g>
</g>
<g>
</g>
<g>
</g>
<g>
</g>
</svg>
